<svg width="121" height="64" viewBox="0 0 121 64" fill="none" xmlns="http://www.w3.org/2000/svg">
<path fill-rule="evenodd" clip-rule="evenodd" d="M78.9634 0.13746C77.0093 0.482638 75.9264 0.752943 74.8074 1.17501C72.9723 1.86717 69.5844 3.87222 68.0787 5.15753C67.3712 5.76134 66.6588 6.31846 66.4955 6.39554C66.3322 6.47263 66.1096 6.6421 66.0007 6.77212C65.8919 6.90214 64.4225 8.16451 62.7353 9.57762C57.8602 13.6604 53.7664 17.1542 52.7804 18.0732C52.1677 18.6442 52.1224 19.3946 52.6939 19.5053C53.0848 19.5811 53.6098 19.1854 57.3181 16.0223C58.7468 14.8036 61.1001 12.81 62.5473 11.5923C63.9946 10.3746 65.5418 9.04828 65.9855 8.64494C68.7983 6.088 74.0083 2.77108 76.0938 2.20974C78.437 1.57896 79.1908 1.43404 80.1453 1.43142C81.6396 1.427 81.1678 1.88066 78.3768 3.13175C76.1835 4.11475 75.9859 4.26852 76.1411 4.87213C76.2701 5.3741 76.1631 5.40067 78.7499 4.22666C84.0616 1.81605 87.869 1.56809 87.869 3.63271C87.869 3.95313 86.5799 4.64852 85.9862 4.64852C85.8 4.64852 84.5211 5.13761 82.6246 5.93403C78.7772 7.55003 71.3629 12.3503 69.0682 14.7108C69.0138 14.7668 68.4349 15.3052 67.7819 15.9072C67.1288 16.5092 63.4288 20.1773 59.5596 24.0586C50.1843 33.4633 48.5856 34.9064 44.1815 37.9416C42.3576 39.1985 41.8928 38.8149 43.6062 37.4668C45.5736 35.9188 50.4036 30.1404 52.5312 26.7888C55.722 21.7627 55.7236 21.7565 53.8323 21.7565C52.4497 21.7565 52.4497 21.7565 52.1396 22.5112C51.2708 24.6268 48.9213 25.7046 46.9783 24.879C43.7337 23.5003 42.6341 19.1571 45.1475 17.6471C46.2573 16.9803 46.7812 17.3195 46.2104 18.3349C45.5457 19.5175 46.0299 21.4986 47.1695 22.2578C49.4445 23.7738 51.6886 21.342 50.5568 18.5873C49.2688 15.4527 44.9096 15.2418 41.8468 18.1658C40.5508 19.4032 40.5361 19.4078 38.2149 19.2788C37.0611 19.2146 34.3362 19.0643 32.1593 18.9443C29.9823 18.8246 27.4911 18.6384 26.6231 18.5307C25.7553 18.423 24.2414 18.3347 23.2588 18.3343C22.2764 18.3341 20.7155 18.2459 19.7903 18.1384C18.8651 18.0312 16.1044 17.843 13.6553 17.7202C11.2063 17.5974 7.24326 17.3863 4.84863 17.2506C0.270534 16.9916 0 17.0027 0 17.4481C0 18.0732 3.08056 19.466 7.52032 20.8481C10.2191 21.6882 11.7792 22.1974 13.5564 22.8184C14.6448 23.1986 16.0697 23.6691 16.7228 23.864C18.0688 24.2655 22.8667 25.8726 23.577 26.1598C23.8345 26.2639 24.5796 26.5036 25.2327 26.6926C25.8857 26.8814 27.0502 27.2519 27.8203 27.5158C29.7389 28.1735 30.2586 28.1321 32.0014 27.1819C33.8009 26.2007 33.9648 26.2742 32.8838 27.578C31.9204 28.7399 31.8573 29.1199 32.6046 29.259C32.9038 29.3147 34.7073 29.9208 36.6121 30.6057C38.5169 31.2904 40.3871 31.9425 40.7681 32.0544C41.831 32.3666 42.1108 32.7206 41.6786 33.2065C41.454 33.4587 41.3418 33.8745 41.3648 34.37C41.3841 34.7939 41.3915 35.2995 41.381 35.4931C41.3519 36.0285 40.6658 35.917 40.4049 35.3345C40.2114 34.9026 40.115 34.8571 39.7793 35.0399C39.3194 35.2902 39.2978 35.4358 39.6163 36.1462C39.8175 36.5957 39.7918 36.7263 39.4293 37.0952C39.0087 37.5229 39.0087 37.5229 38.7639 36.9769C38.3459 36.0436 37.7006 36.3342 37.7006 37.4555C37.7006 38.8463 37.449 39.0731 36.7932 38.2741C36.095 37.4235 35.8205 37.6157 35.8205 38.9554C35.8205 40.2167 35.3788 40.6094 34.8149 39.8492C34.2567 39.0965 33.789 39.4777 33.9479 40.5559C34.1106 41.659 33.4836 42.2683 33.09 41.3895C32.9723 41.1269 32.6924 40.8527 32.4682 40.7803C32.2438 40.708 32.0603 40.5788 32.0603 40.4935C32.0603 40.331 34.394 38.1604 35.528 37.2681C39.3824 34.2354 40.2504 33.0276 38.5761 33.0276C38.3653 33.0276 36.6808 34.3642 35.7993 35.2309C35.6244 35.4028 35.2681 35.726 35.0077 35.9492C34.7473 36.1724 33.2424 37.4857 31.6635 38.8676C30.0849 40.2495 28.3124 41.7878 27.7251 42.286C27.1377 42.7841 26.2564 43.5383 25.767 43.9618C25.2776 44.3852 24.2445 45.2408 23.4715 45.8629C22.6987 46.4853 22.0217 47.0468 21.9673 47.1108C21.9128 47.175 21.4676 47.5377 20.9777 47.9167C17.7691 50.4002 16.4088 51.6074 16.5999 51.8018C17.084 52.2941 23.6589 51.0634 28.8939 49.5005C30.3633 49.0617 31.8327 48.624 32.1593 48.5274C32.8498 48.3231 38.2112 46.2256 39.0859 45.8175C39.4124 45.6651 40.1694 45.3177 40.7681 45.0454C44.8215 43.2014 48.1633 41.3145 52.2465 38.5643C55.8129 36.1621 56.7343 35.511 57.7096 34.7045C58.1335 34.3539 59.1483 33.5197 59.9647 32.8507C60.781 32.1818 62.3973 30.8386 63.5566 29.8656C68.6837 25.5621 70.3851 24.1524 74.9855 20.3965C88.0707 9.71328 91.8053 4.10489 87.705 1.29456C86.3319 0.353624 81.421 -0.296478 78.9634 0.13746ZM69.7015 6.70147C69.4195 6.98828 69.3726 10.0017 69.6477 10.1744C69.8771 10.3187 70.812 9.48403 70.8777 9.07646C71.13 7.50696 70.3863 6.00508 69.7015 6.70147ZM66.0637 9.98217C65.6778 10.8436 66.2002 11.7586 66.7114 11.1165C67.1442 10.5729 67.1947 10.0693 66.8517 9.72052C66.4989 9.36166 66.3142 9.42304 66.0637 9.98217ZM63.9604 12.2448C64.0336 13.1437 64.6142 13.412 64.8838 12.6715C65.1389 11.9699 64.9356 11.4917 64.3825 11.4917C63.9447 11.4917 63.9047 11.5633 63.9604 12.2448ZM62.1438 13.2989C61.8857 13.7894 62.0876 14.712 62.4529 14.712C62.9129 14.712 63.1618 13.9941 62.9024 13.4152C62.6255 12.7971 62.4242 12.7661 62.1438 13.2989ZM60.2756 14.8269C59.8958 15.2134 59.8905 15.337 60.2328 15.8132C60.7674 16.5564 61.393 15.786 61.032 14.8292C60.8802 14.4268 60.6698 14.4262 60.2756 14.8269ZM58.3241 16.5234C58.163 17.15 58.3904 17.7311 58.7967 17.7311C59.2598 17.7311 59.5141 16.8406 59.1709 16.4202C58.8289 16.0009 58.4464 16.0476 58.3241 16.5234ZM56.5319 18.0249C56.4667 18.1972 56.5016 18.5738 56.6092 18.8616C56.8626 19.5397 57.443 19.1432 57.3526 18.3538C57.2857 17.7717 56.7139 17.5425 56.5319 18.0249ZM54.7163 19.5489C54.6395 19.6753 54.6698 19.8736 54.7836 19.9893C55.0496 20.2598 55.6696 20.0239 55.5613 19.6932C55.4513 19.3569 54.8912 19.2611 54.7163 19.5489ZM70.3319 25.8259C70.0178 26.0715 69.0011 26.9545 68.0724 27.7883C67.1436 28.622 65.7205 29.8928 64.9097 30.6123C61.0664 34.0228 61.1137 33.9444 62.488 34.6389C63.0051 34.9002 64.184 35.5551 65.1082 36.0945C68.8646 38.2872 69.0017 38.333 71.3952 38.1942C75.0881 37.98 78.1922 36.6989 80.2498 34.5399C84.5581 30.0194 79.8453 23.6307 74.2634 26.4253C72.9784 27.0688 72.9784 27.0688 72.2036 26.224C71.314 25.2543 71.1163 25.2123 70.3319 25.8259ZM76.4783 27.8449C75.888 30.2645 77.3952 32.2489 79.5565 31.8972C80.4107 31.7584 80.4693 31.8187 80.1217 32.4789C78.4607 35.6354 73.6378 32.4713 74.5957 28.8536C74.9798 27.4023 76.828 26.412 76.4783 27.8449ZM48.0905 27.7497C48.0905 28.0411 46.4384 28.9971 45.7289 29.1161C45.3406 29.1813 44.7647 29.3182 44.4493 29.4202C43.6788 29.6696 41.2185 29.6573 41.0641 29.4033C40.8957 29.1264 41.1566 29.0513 43.4398 28.7176C44.5282 28.5586 45.9086 28.2514 46.5073 28.0351C47.7428 27.5885 48.0905 27.5257 48.0905 27.7497ZM17.5144 29.1463C16.4078 29.4184 16.2439 29.9059 16.7644 31.3747C17.0278 32.1178 17.3395 32.9974 17.457 33.3295C17.5746 33.6616 17.7351 34.0239 17.8137 34.1346C17.8924 34.2452 18.1594 34.9245 18.4074 35.6441C19.1875 37.9092 19.3175 38.2495 19.4569 38.391C19.5315 38.4669 19.5924 38.6547 19.5924 38.8084C19.5924 38.962 19.7547 39.4678 19.9532 39.9321C20.1517 40.3965 20.4792 41.1669 20.6813 41.6441C21.5546 43.7067 23.5934 43.5339 26.392 41.1603C27.5503 40.1777 28.4981 39.2444 28.4981 39.086C28.4981 38.9276 26.3095 36.5941 23.6346 33.9001C18.7224 28.9533 18.6207 28.8742 17.5144 29.1463ZM79.5462 36.8523C76.9371 38.3622 74.7851 39.0991 72.3489 39.316C71.2226 39.4163 71.6626 39.8033 74.0627 40.8231C75.3984 41.3909 77.2923 42.231 78.2715 42.6901C79.2508 43.1492 80.23 43.6021 80.4477 43.6963C84.6405 45.5115 84.9818 45.5743 85.4819 44.6237C85.6761 44.255 85.6844 44.0658 85.5154 43.8635C85.0103 43.2589 83.8967 41.6532 82.4394 39.4281C80.4313 36.3624 80.416 36.3489 79.5462 36.8523ZM32.0603 41.7582C32.0603 42.9852 31.694 43.5335 31.1698 43.0911C30.7478 42.735 30.8025 41.8275 31.2832 41.2062C31.8864 40.426 32.0603 40.5496 32.0603 41.7582ZM5.29391 43.9191C3.5773 44.9892 3.59946 45.2163 5.46609 45.6854C5.88841 45.7917 8.32678 46.4392 10.8847 47.1245C17.4592 48.8858 16.9405 48.8933 19.3169 47.0037C20.3937 46.1477 21.4304 45.3481 21.6209 45.2271C22.5546 44.6336 21.0783 44.2731 16.1291 43.8859C14.823 43.7836 12.9082 43.616 11.8742 43.5133C6.68953 42.9983 6.77957 42.9926 5.29391 43.9191Z" fill="url(#paint0_linear_106_50)"/>
<path d="M47.3248 55.5243C46.9024 54.7307 46.6912 53.7963 46.6912 52.7211C46.6912 51.7227 46.8576 50.8331 47.1904 50.0523C47.536 49.2587 47.9072 48.6251 48.304 48.1515C48.7136 47.6651 49.2064 47.2811 49.7824 46.9995C50.3712 46.7051 50.992 46.5579 51.6448 46.5579C52.5664 46.5579 53.3024 46.8203 53.8528 47.3451L56.368 45.2331C56.3168 44.7851 56.2912 44.3435 56.2912 43.9083C56.2912 41.0667 57.04 39.6459 58.5376 39.6459C58.9216 39.6459 59.2224 39.7803 59.44 40.0491C59.6576 40.3179 59.7792 40.6635 59.8048 41.0859C59.8176 41.7003 59.6192 42.3147 59.2096 42.9291C58.8128 43.5435 58.224 44.2155 57.4432 44.9451C57.84 47.5947 58.0384 49.3995 58.0384 50.3595C58.0384 51.3067 57.9168 52.2283 57.6736 53.1243C57.4304 54.0075 57.0592 54.8139 56.56 55.5435C56.0608 56.2731 55.376 56.8427 54.5056 57.2523C53.6352 57.6619 52.624 57.8667 51.472 57.8667C49.8208 57.8667 48.5728 57.3035 47.728 56.1771C47.4976 56.9835 47.3824 57.8987 47.3824 58.9227C47.3824 59.9595 47.6512 60.8875 48.1888 61.7067C48.7392 62.5387 49.4432 62.9547 50.3008 62.9547C50.3648 62.9547 50.3968 63.0187 50.3968 63.1467C50.4096 63.2747 50.3776 63.3387 50.3008 63.3387C49.2896 63.3387 48.4576 62.8587 47.8048 61.8987C47.152 60.9515 46.8256 59.8955 46.8256 58.7307C46.8256 57.5659 46.992 56.4971 47.3248 55.5243ZM54.1792 47.7099C54.5376 48.1963 54.7168 48.7467 54.7168 49.3611C54.7168 49.9627 54.6208 50.5067 54.4288 50.9931C54.2496 51.4667 53.9232 51.8891 53.4496 52.2603C52.9888 52.6187 52.4512 52.7979 51.8368 52.7979C51.7088 52.7979 51.6064 52.7659 51.5296 52.7019C51.4656 52.6379 51.4208 52.5355 51.3952 52.3947C51.9456 52.3947 52.4512 52.1387 52.912 51.6267C53.5776 50.9099 53.9104 50.1035 53.9104 49.2075C53.9104 48.8363 53.84 48.4779 53.6992 48.1323C52.2656 49.3611 51.056 50.5643 50.0704 51.7419C49.0848 52.9195 48.3616 54.1995 47.9008 55.5819C48.6304 56.7595 49.776 57.3483 51.3376 57.3483C52.2976 57.3483 53.136 57.1435 53.8528 56.7339C54.5824 56.3371 55.152 55.7931 55.5616 55.1019C56.368 53.7451 56.7712 52.1003 56.7712 50.1675C56.7712 49.6939 56.656 48.2539 56.4256 45.8475L54.1792 47.7099ZM53.4112 47.7291C53.0016 47.2939 52.4384 47.0763 51.7216 47.0763C51.0048 47.0763 50.3584 47.2491 49.7824 47.5947C48.72 48.2347 47.9584 49.3099 47.4976 50.8203C47.2928 51.4603 47.1904 52.1195 47.1904 52.7979C47.1904 53.5531 47.312 54.2507 47.5552 54.8907C48.4384 52.6763 50.3904 50.2891 53.4112 47.7291ZM57.2704 42.9291C57.2704 43.2747 57.3024 43.7355 57.3664 44.3115C58.6336 43.0699 59.2672 42.0203 59.2672 41.1627C59.2672 40.4971 59.024 40.1643 58.5376 40.1643C57.6928 40.1643 57.2704 41.0859 57.2704 42.9291ZM64.5288 50.3019C65.028 49.5723 65.2776 48.9451 65.2776 48.4203C65.2776 47.8955 65.1048 47.6331 64.7592 47.6331C64.3496 47.6331 63.9016 47.9787 63.4152 48.6699C62.9288 49.3483 62.4936 50.1611 62.1096 51.1083C61.3672 52.9387 60.9128 54.2059 60.7464 54.9099C60.6696 55.1659 60.5608 55.2939 60.42 55.2939C60.1896 55.2939 60.0168 55.1531 59.9016 54.8715C59.8376 54.7179 59.8056 54.5579 59.8056 54.3915C59.8056 54.2123 59.8568 53.8923 59.9592 53.4315C60.0616 52.9579 60.2344 52.1323 60.4776 50.9547C60.708 49.7771 60.9064 48.8043 61.0728 48.0363C61.2392 47.2555 61.4312 46.3851 61.6488 45.4251C61.8664 44.4523 62.0712 43.6651 62.2632 43.0635C62.468 42.4491 62.6984 41.8603 62.9544 41.2971C63.4408 40.1963 63.9976 39.6459 64.6248 39.6459C65.2008 39.6459 65.4888 40.0299 65.4888 40.7979C65.4888 40.9899 65.4696 41.2139 65.4312 41.4699C65.2392 42.6859 64.7336 43.9403 63.9144 45.2331C63.3256 46.1675 62.7688 46.7563 62.244 46.9995C62.1544 47.4731 62.0328 48.1515 61.8792 49.0347C61.7256 49.9179 61.6168 50.5323 61.5528 50.8779H61.6488C62.7368 48.4075 63.844 47.1723 64.9704 47.1723C65.8152 47.1723 66.2376 47.6395 66.2376 48.5739C66.2376 49.1883 65.9752 49.8539 65.4504 50.5707C64.9384 51.2875 64.2472 51.7483 63.3768 51.9531C63.812 52.1195 64.1768 52.4139 64.4712 52.8363C64.7784 53.2459 64.9896 53.6427 65.1048 54.0267C65.3992 55.0379 65.6936 55.5435 65.988 55.5435C65.988 55.6331 65.9304 55.7227 65.8152 55.8123C65.7 55.9019 65.5656 55.9467 65.412 55.9467C64.9768 55.9467 64.6312 55.7419 64.3752 55.3323C64.132 54.9227 63.972 54.4747 63.8952 53.9883C63.8184 53.5019 63.6776 53.0539 63.4728 52.6443C63.268 52.2347 62.9864 52.0299 62.628 52.0299H62.5896C62.4744 52.0299 62.3912 51.9403 62.34 51.7611C63.1336 51.7611 63.8632 51.2747 64.5288 50.3019ZM65.0472 40.8363C65.0472 40.4267 64.932 40.1771 64.7016 40.0875C63.9464 40.0875 63.1656 42.1995 62.3592 46.4235C62.8712 46.0651 63.4024 45.3483 63.9528 44.2731C64.6824 42.8267 65.0472 41.6811 65.0472 40.8363ZM67.0029 62.9547C65.7869 62.9547 65.1789 62.3339 65.1789 61.0923C65.1789 60.3627 65.4541 59.5755 66.0045 58.7307C66.7981 57.4891 67.8605 56.6699 69.1917 56.2731C69.6653 56.1323 70.1581 56.0619 70.6701 56.0619C70.7597 56.0619 70.8045 56.1515 70.8045 56.3307C70.8045 56.5099 70.7597 56.5995 70.6701 56.5995C69.1597 56.5995 67.8925 57.1947 66.8685 58.3851C66.1133 59.2811 65.7357 60.1451 65.7357 60.9771C65.7357 61.8091 66.0557 62.2891 66.6957 62.4171L67.0029 62.4363C68.0653 62.4363 68.9165 61.9883 69.5565 61.0923C70.0045 60.4523 70.3373 59.7995 70.5549 59.1339C70.7853 58.4811 70.9517 57.9563 71.0541 57.5595C71.1693 57.1627 71.2973 56.6379 71.4381 55.9851C71.5789 55.3451 71.6877 54.8011 71.7645 54.3531C71.8541 53.9051 71.9757 53.2651 72.1293 52.4331C72.2957 51.5883 72.4237 50.9227 72.5133 50.4363H72.3981C70.8493 53.6747 69.5757 55.2939 68.5773 55.2939C67.7197 55.2939 67.2909 54.7371 67.2909 53.6235C67.2909 52.8171 67.6365 51.2107 68.3277 48.8043C68.4813 48.2539 68.5965 47.8443 68.6733 47.5755C68.7501 47.2939 68.8717 47.1531 69.0381 47.1531C69.2685 47.1531 69.4349 47.3195 69.5373 47.6523C69.5885 47.7931 69.6141 47.9723 69.6141 48.1899C69.6141 48.3947 69.5821 48.6251 69.5181 48.8811C69.4541 49.1243 69.3197 49.5979 69.1149 50.3019C68.5645 52.1963 68.2893 53.4699 68.2893 54.1227C68.2893 54.5451 68.4173 54.7563 68.6733 54.7563C68.9805 54.7563 69.3581 54.4683 69.8061 53.8923C70.2669 53.3163 70.7149 52.6123 71.1501 51.7803C71.9437 50.2699 72.5901 48.8619 73.0893 47.5563C73.1917 47.2875 73.3197 47.1531 73.4733 47.1531C73.6909 47.1531 73.8509 47.3195 73.9533 47.6523C74.0045 47.8315 74.0301 48.0299 74.0301 48.2475C74.0301 48.4651 73.9213 49.0923 73.7037 50.1291C73.4989 51.1659 73.2877 52.1579 73.0701 53.1051C72.8653 54.0523 72.5901 55.1659 72.2445 56.4459C71.9117 57.7259 71.5917 58.6795 71.2845 59.3067C70.9901 59.9339 70.6253 60.5739 70.1901 61.2267C69.7677 61.8795 69.2941 62.3275 68.7693 62.5707C68.2445 62.8267 67.6557 62.9547 67.0029 62.9547ZM75.5479 55.2939C75.1895 55.2939 75.0103 55.0187 75.0103 54.4683C75.0103 54.1739 75.3687 52.0299 76.0855 48.0363C76.1239 47.7675 76.2391 47.6331 76.4311 47.6331C76.6615 47.6331 76.8343 47.7995 76.9495 48.1323C77.0135 48.3115 77.0455 48.5099 77.0455 48.7275C77.0455 48.9323 77.0199 49.1563 76.9687 49.3995L76.6807 50.8587H76.7959C77.9223 48.3243 79.0103 47.0571 80.0599 47.0571C80.4183 47.0571 80.6999 47.1851 80.9047 47.4411C81.1223 47.6971 81.2311 48.0043 81.2311 48.3627C81.2311 49.0283 81.1287 49.8603 80.9239 50.8587H81.0007C82.0887 48.4907 83.1575 47.3067 84.2071 47.3067C84.5527 47.3067 84.8343 47.4347 85.0519 47.6907C85.2695 47.9467 85.3783 48.2859 85.3783 48.7083C85.3783 49.1307 85.2119 50.0267 84.8791 51.3963C84.5591 52.7659 84.3991 53.7323 84.3991 54.2955C84.3991 55.1275 84.5527 55.5435 84.8599 55.5435C84.8599 55.6331 84.8023 55.7227 84.6871 55.8123C84.5719 55.9019 84.4375 55.9467 84.2839 55.9467C83.5415 55.9467 83.1703 55.3643 83.1703 54.1995C83.1703 53.4699 83.3559 52.4203 83.7271 51.0507C84.0983 49.6683 84.2839 48.7851 84.2839 48.4011C84.2839 48.0043 84.1559 47.8059 83.8999 47.8059C83.4263 47.8059 82.8695 48.3819 82.2295 49.5339C81.6023 50.6731 81.0967 51.7675 80.7127 52.8171C80.3415 53.8667 80.1239 54.5451 80.0599 54.8523C79.9959 55.1467 79.8807 55.2939 79.7143 55.2939C79.3559 55.2939 79.1767 55.0187 79.1767 54.4683C79.1767 54.2635 79.2855 53.5403 79.5031 52.2987C79.9255 50.0203 80.1367 48.6635 80.1367 48.2283C80.1367 47.7803 80.0087 47.5563 79.7527 47.5563C79.4071 47.5563 79.0039 47.9147 78.5431 48.6315C78.0823 49.3355 77.6663 50.1547 77.2951 51.0891C76.4887 53.0603 76.0151 54.3339 75.8743 54.9099C75.8231 55.1659 75.7143 55.2939 75.5479 55.2939ZM88.2095 55.3131C87.1983 55.3131 86.6927 54.5515 86.6927 53.0283C86.6927 52.1451 86.9231 51.1787 87.3839 50.1291C88.0239 48.7083 88.8367 47.7803 89.8223 47.3451C90.1679 47.2043 90.5135 47.1339 90.8591 47.1339C91.2175 47.1339 91.4991 47.2363 91.7039 47.4411C91.9087 47.6459 92.0111 47.8763 92.0111 48.1323C92.0111 48.2475 91.9471 48.3051 91.8191 48.3051C91.7039 48.2923 91.6463 48.2283 91.6463 48.1131C91.6463 47.9979 91.5823 47.8955 91.4543 47.8059C91.3391 47.7035 91.1663 47.6523 90.9359 47.6523C90.1295 47.6523 89.3999 48.3755 88.7471 49.8219C88.1327 51.1659 87.8255 52.4395 87.8255 53.6427C87.8255 54.3851 87.9855 54.7563 88.3055 54.7563C88.6383 54.7563 89.0351 54.4811 89.4959 53.9307C89.9695 53.3675 90.4047 52.7147 90.8015 51.9723C91.6591 50.4107 92.1647 49.4059 92.3183 48.9579C92.4719 48.5099 92.6383 48.2859 92.8175 48.2859C93.1375 48.2859 93.2975 48.5547 93.2975 49.0923C93.2975 49.2587 93.2783 49.4507 93.2399 49.6683C92.8175 51.7163 92.5871 52.9003 92.5487 53.2203C92.5231 53.5403 92.5103 53.7707 92.5103 53.9115C92.5103 54.5259 92.6575 54.8331 92.9519 54.8331C93.2847 54.8331 93.7519 54.3915 94.3535 53.5083C94.9551 52.6251 95.4735 51.7419 95.9087 50.8587L96.5615 49.5339H97.0799C97.0031 49.6875 96.9007 49.8987 96.7727 50.1675C96.6575 50.4235 96.4207 50.8907 96.0623 51.5691C95.7039 52.2347 95.3583 52.8235 95.0255 53.3355C94.7055 53.8475 94.3407 54.3147 93.9311 54.7371C93.5343 55.1467 93.1887 55.3515 92.8943 55.3515C91.9471 55.3515 91.4735 54.6603 91.4735 53.2779C91.4735 52.8171 91.5247 52.2795 91.6271 51.6651H91.4927C90.1871 54.0971 89.0927 55.3131 88.2095 55.3131ZM95.9937 46.9035C95.9937 46.7627 96.0833 46.6923 96.2625 46.6923H97.2608C97.3248 46.4363 97.408 46.1163 97.5104 45.7323L97.7792 44.7339C97.856 44.4395 97.92 44.1707 97.9712 43.9275C98.0352 43.6843 98.1504 43.5627 98.3169 43.5627C98.5344 43.5627 98.688 43.7291 98.7776 44.0619C98.816 44.2027 98.8353 44.3755 98.8353 44.5803C98.8353 44.7851 98.7968 45.0475 98.72 45.3675L98.3552 46.6923H99.5456C99.6608 46.6923 99.7376 46.7307 99.776 46.8075C99.8273 46.8843 99.8273 46.9611 99.776 47.0379C99.7376 47.1019 99.6608 47.1339 99.5456 47.1339H98.24C97.4464 50.1163 97.0496 52.2283 97.0496 53.4699C97.0496 54.3787 97.2544 54.8331 97.664 54.8331C97.9968 54.8331 98.464 54.3915 99.0656 53.5083C99.6672 52.6251 100.186 51.7419 100.621 50.8587L101.274 49.5339H101.792C101.715 49.6875 101.613 49.8987 101.485 50.1675C101.37 50.4235 101.133 50.8907 100.774 51.5691C100.416 52.2347 100.07 52.8235 99.7376 53.3355C99.4176 53.8475 99.0529 54.3147 98.6432 54.7371C98.2464 55.1467 97.8752 55.3515 97.5297 55.3515C97.184 55.3515 96.8832 55.2427 96.6272 55.0251C96.3841 54.7947 96.2305 54.4747 96.1665 54.0651C96.0897 53.6427 96.0513 53.2139 96.0513 52.7787C96.0513 51.7675 96.4096 49.8859 97.1264 47.1339H96.2625C96.1601 47.1339 96.0897 47.1083 96.0513 47.0571C96.0129 46.9931 95.9937 46.9419 95.9937 46.9035ZM101.746 52.4907C101.746 54.0395 102.296 54.8139 103.397 54.8139C103.806 54.8139 104.235 54.6347 104.683 54.2763C105.144 53.9051 105.56 53.4635 105.931 52.9515C106.75 51.7739 107.326 50.8139 107.659 50.0715L107.909 49.5339H108.427C108.21 50.0459 107.89 50.6795 107.467 51.4347C107.045 52.1771 106.642 52.8043 106.258 53.3163C105.874 53.8283 105.419 54.2955 104.894 54.7179C104.37 55.1275 103.87 55.3323 103.397 55.3323C101.502 55.3323 100.555 54.2699 100.555 52.1451C100.555 51.1595 100.843 50.1739 101.419 49.1883C102.213 47.8187 103.192 47.1339 104.357 47.1339C105.176 47.1339 105.586 47.5819 105.586 48.4779C105.586 49.1435 105.33 49.8347 104.818 50.5515C104.101 51.5243 103.262 52.0171 102.302 52.0299C102.162 52.0299 102.072 51.9659 102.034 51.8379L102.014 51.7611C102.68 51.7611 103.314 51.3259 103.915 50.4555C104.53 49.5723 104.837 48.8363 104.837 48.2475C104.837 47.8507 104.683 47.6523 104.376 47.6523C103.698 47.6523 103.064 48.2475 102.475 49.4379C101.989 50.4491 101.746 51.4667 101.746 52.4907Z" fill="#0670B8"/>
<path d="M105.9 56.3145C106.038 56.3145 106.15 56.2025 106.15 56.0645C106.15 55.9264 106.038 55.8145 105.9 55.8145V56.3145ZM72.6765 56.3145H105.9V55.8145H72.6765V56.3145Z" fill="#026EB6"/>
<defs>
<linearGradient id="paint0_linear_106_50" x1="44.6441" y1="0" x2="44.6441" y2="51.9118" gradientUnits="userSpaceOnUse">
<stop stop-color="#0F77BC"/>
<stop offset="1" stop-color="#65B2E3"/>
</linearGradient>
</defs>
</svg>
